<svg width="19" height="20" viewBox="0 0 19 20" fill="none" xmlns="http://www.w3.org/2000/svg">
<g id="Fork ">
<path id="Vector" d="M13.3317 9.70708C13.6488 9.711 13.9634 9.65138 14.2571 9.53173C14.5508 9.41207 14.8176 9.23482 15.0417 9.01041L17.2821 6.76999C17.4295 6.62166 17.5123 6.42101 17.5123 6.21187C17.5123 6.00272 17.4295 5.80207 17.2821 5.65374C17.2085 5.57954 17.1209 5.52064 17.0244 5.48045C16.928 5.44026 16.8245 5.41957 16.72 5.41957C16.6155 5.41957 16.512 5.44026 16.4155 5.48045C16.3191 5.52064 16.2315 5.57954 16.1579 5.65374L13.8937 7.88624C13.8201 7.96044 13.7326 8.01934 13.6361 8.05953C13.5396 8.09972 13.4362 8.12042 13.3317 8.12042C13.2271 8.12042 13.1237 8.09972 13.0272 8.05953C12.9307 8.01934 12.8432 7.96044 12.7696 7.88624L15.5721 5.09166C15.6459 5.01784 15.7044 4.93021 15.7444 4.83377C15.7843 4.73733 15.8049 4.63396 15.8049 4.52957C15.8049 4.42519 15.7843 4.32182 15.7444 4.22538C15.7044 4.12894 15.6459 4.04131 15.5721 3.96749C15.4983 3.89368 15.4106 3.83513 15.3142 3.79518C15.2177 3.75523 15.1144 3.73467 15.01 3.73467C14.9056 3.73467 14.8022 3.75523 14.7058 3.79518C14.6093 3.83513 14.5217 3.89368 14.4479 3.96749L11.6533 6.76999C11.5059 6.62166 11.4231 6.42101 11.4231 6.21187C11.4231 6.00272 11.5059 5.80207 11.6533 5.65374L13.8937 3.41332C13.9676 3.33951 14.0261 3.25188 14.0661 3.15544C14.106 3.059 14.1266 2.95563 14.1266 2.85124C14.1266 2.74685 14.106 2.64349 14.0661 2.54704C14.0261 2.4506 13.9676 2.36297 13.8937 2.28916C13.8199 2.21534 13.7323 2.15679 13.6359 2.11684C13.5394 2.0769 13.436 2.05634 13.3317 2.05634C13.2273 2.05634 13.1239 2.0769 13.0275 2.11684C12.931 2.15679 12.8434 2.21534 12.7696 2.28916L10.5292 4.52957C10.0844 4.97489 9.83458 5.57853 9.83458 6.20791C9.83458 6.83729 10.0844 7.44093 10.5292 7.88624L9.49999 8.90749L2.95291 2.33666L2.87374 2.28916C2.83327 2.25385 2.78795 2.22452 2.73916 2.20207L2.59666 2.14666L2.50166 2.08332H2.44624H2.28791C2.24071 2.07578 2.19261 2.07578 2.14541 2.08332C2.09748 2.10077 2.05219 2.12474 2.01082 2.15457L1.88416 2.23374H1.82874L1.78124 2.31291C1.74773 2.35471 1.71856 2.3998 1.69416 2.44749C1.67097 2.49577 1.65242 2.54613 1.63874 2.59791C1.63874 2.59791 1.63874 2.65332 1.63874 2.68499C1.44663 4.02402 1.56911 5.3894 1.99648 6.67286C2.42384 7.95633 3.14433 9.12258 4.10082 10.0792L6.19082 12.1612L1.90791 16.4362C1.83371 16.5098 1.77481 16.5974 1.73462 16.6939C1.69443 16.7903 1.67373 16.8938 1.67373 16.9983C1.67373 17.1028 1.69443 17.2063 1.73462 17.3028C1.77481 17.3993 1.83371 17.4868 1.90791 17.5604C1.98188 17.6338 2.06961 17.6918 2.16606 17.7312C2.26252 17.7706 2.3658 17.7906 2.46999 17.79C2.57418 17.7906 2.67746 17.7706 2.77392 17.7312C2.87037 17.6918 2.9581 17.6338 3.03207 17.5604L7.83749 12.8262L10.0779 10.5858L11.6612 9.00249C12.103 9.44899 12.7036 9.70233 13.3317 9.70708ZM7.27541 11.1479L5.19332 9.05791C4.0521 7.90107 3.33754 6.39099 3.16666 4.77499L8.39957 9.99999L7.27541 11.1479ZM12.2154 11.5992C12.0663 11.449 11.8637 11.3643 11.6522 11.3635C11.4406 11.3628 11.2374 11.4461 11.0873 11.5952C10.9372 11.7443 10.8524 11.9469 10.8517 12.1584C10.8509 12.37 10.9342 12.5732 11.0833 12.7233L16.0708 17.7108C16.222 17.8484 16.4206 17.9222 16.625 17.9167C16.7292 17.9173 16.8325 17.8973 16.9289 17.8579C17.0254 17.8185 17.1131 17.7604 17.1871 17.6871C17.2613 17.6135 17.3202 17.5259 17.3604 17.4294C17.4006 17.333 17.4212 17.2295 17.4212 17.125C17.4212 17.0205 17.4006 16.917 17.3604 16.8205C17.3202 16.7241 17.2613 16.6365 17.1871 16.5629L12.2154 11.5992Z" fill="black"/>
</g>
</svg>
