<svg width="19" height="20" viewBox="0 0 19 20" fill="none" xmlns="http://www.w3.org/2000/svg">
<g id="flight ">
<path id="Vector" d="M17.4167 4.52164C17.4173 4.03889 17.2747 3.56682 17.0068 3.16522C16.7389 2.76362 16.3579 2.45058 15.9119 2.26575C15.4659 2.08092 14.9751 2.03263 14.5017 2.12699C14.0283 2.22135 13.5935 2.45412 13.2525 2.7958L11.0279 5.02039L5.89 3.31039C5.7532 3.26739 5.6073 3.26236 5.46787 3.29582C5.32844 3.32929 5.20071 3.39999 5.09833 3.50039L3.21416 5.36872C3.12489 5.45903 3.05865 5.5695 3.02103 5.69079C2.98342 5.81208 2.97553 5.94064 2.99805 6.06562C3.02056 6.1906 3.0728 6.30832 3.15038 6.40887C3.22795 6.50941 3.32857 6.58982 3.44375 6.6433L7.54458 8.50372L5.48625 10.5621L4.1325 9.88122C3.98633 9.80212 3.81898 9.77102 3.65416 9.79233C3.48933 9.81364 3.3354 9.88629 3.21416 9.99997L1.81291 11.4329C1.66546 11.5812 1.5827 11.7819 1.5827 11.991C1.5827 12.2002 1.66546 12.4008 1.81291 12.5491L6.95083 17.6871C7.09916 17.8345 7.29981 17.9173 7.50896 17.9173C7.7181 17.9173 7.91875 17.8345 8.06708 17.6871L9.5 16.2858C9.61881 16.1682 9.69736 16.016 9.72438 15.8511C9.7514 15.6861 9.72551 15.5168 9.65041 15.3675L8.96958 14.0137L11.0279 11.9554L12.8883 16.0562C12.9418 16.1714 13.0222 16.272 13.1228 16.3496C13.2233 16.4272 13.341 16.4794 13.466 16.5019C13.591 16.5244 13.7196 16.5165 13.8408 16.4789C13.9621 16.4413 14.0726 16.3751 14.1629 16.2858L16.0312 14.4175C16.1316 14.3151 16.2023 14.1874 16.2358 14.0479C16.2693 13.9085 16.2642 13.7626 16.2212 13.6258L14.5112 8.48789L16.7042 6.24747C16.9315 6.0215 17.1117 5.75252 17.234 5.45621C17.3563 5.1599 17.4184 4.8422 17.4167 4.52164ZM15.58 5.13122L13.015 7.69622C12.9146 7.7986 12.8439 7.92633 12.8104 8.06576C12.777 8.20519 12.782 8.35109 12.825 8.48789L14.535 13.6179L13.8225 14.3304L11.9621 10.2375C11.9093 10.1212 11.8291 10.0195 11.7285 9.94091C11.6279 9.86233 11.5097 9.80926 11.3842 9.78622C11.2575 9.76311 11.1272 9.77122 11.0044 9.80985C10.8817 9.84847 10.7702 9.91645 10.6796 10.0079L7.41791 13.3012C7.30081 13.4182 7.22333 13.5689 7.19635 13.7322C7.16936 13.8956 7.19425 14.0632 7.2675 14.2116L7.91666 15.5416L7.47333 15.985L3.49125 11.995L3.95833 11.5833L5.31208 12.2641C5.46051 12.3374 5.62816 12.3623 5.79147 12.3353C5.95478 12.3083 6.10552 12.2308 6.2225 12.1137L9.5 8.82039C9.59096 8.73013 9.65866 8.61915 9.69727 8.49696C9.73589 8.37477 9.74426 8.24504 9.72168 8.1189C9.6991 7.99277 9.64624 7.874 9.56764 7.77279C9.48903 7.67159 9.38704 7.59098 9.27041 7.53789L5.14583 5.67747L5.85833 4.96497L10.9883 6.67497C11.1251 6.71797 11.271 6.723 11.4105 6.68954C11.5499 6.65607 11.6776 6.58537 11.78 6.48497L14.345 3.91997C14.4239 3.8393 14.5181 3.77521 14.6221 3.73145C14.7261 3.68769 14.8378 3.66514 14.9506 3.66514C15.0635 3.66514 15.1751 3.68769 15.2791 3.73145C15.3831 3.77521 15.4774 3.8393 15.5562 3.91997C15.6388 3.99648 15.7041 4.08972 15.7478 4.19348C15.7915 4.29723 15.8126 4.4091 15.8096 4.52164C15.8139 4.63342 15.7958 4.74493 15.7563 4.84961C15.7169 4.9543 15.657 5.05004 15.58 5.13122Z" fill="#333333"/>
</g>
</svg>
