<svg width="19" height="20" viewBox="0 0 19 20" fill="none" xmlns="http://www.w3.org/2000/svg">
<g id="basic / home">
<path id="icon" fill-rule="evenodd" clip-rule="evenodd" d="M5.32573 8.41477L9.28313 4.25902L13.2405 8.41477H13.2397V15.3395H5.32661V8.41477H5.32573ZM4.00777 9.79878L3.52264 10.3082C3.25668 10.5875 2.81117 10.5875 2.54521 10.3082C2.29702 10.0476 2.29702 9.63807 2.54521 9.37745L8.35136 3.2803C8.86596 2.7399 9.7003 2.7399 10.2149 3.2803L16.021 9.37745C16.2692 9.63807 16.2692 10.0476 16.021 10.3082C15.7551 10.5875 15.3096 10.5875 15.0436 10.3082L14.5585 9.7988V15.3395C14.5585 16.1044 13.968 16.7244 13.2397 16.7244H5.32661C4.59824 16.7244 4.00777 16.1044 4.00777 15.3395V9.79878Z" fill="#333333"/>
</g>
</svg>
