<svg width="134" height="8" viewBox="0 0 134 8" fill="none" xmlns="http://www.w3.org/2000/svg">
<path id="Line 57" d="M1.07715 3.5C0.801006 3.5 0.577148 3.72386 0.577148 4C0.577148 4.27614 0.801006 4.5 1.07715 4.5V3.5ZM133.322 4.35355C133.518 4.15829 133.518 3.84171 133.322 3.64645L130.14 0.464466C129.945 0.269204 129.629 0.269204 129.433 0.464466C129.238 0.659728 129.238 0.976311 129.433 1.17157L132.262 4L129.433 6.82843C129.238 7.02369 129.238 7.34027 129.433 7.53553C129.629 7.7308 129.945 7.7308 130.14 7.53553L133.322 4.35355ZM2.57592 4.5C2.85206 4.5 3.07592 4.27614 3.07592 4C3.07592 3.72386 2.85206 3.5 2.57592 3.5V4.5ZM5.57346 3.5C5.29731 3.5 5.07346 3.72386 5.07346 4C5.07346 4.27614 5.29731 4.5 5.57346 4.5V3.5ZM8.57099 4.5C8.84714 4.5 9.07099 4.27614 9.07099 4C9.07099 3.72386 8.84714 3.5 8.57099 3.5V4.5ZM11.5685 3.5C11.2924 3.5 11.0685 3.72386 11.0685 4C11.0685 4.27614 11.2924 4.5 11.5685 4.5V3.5ZM14.5661 4.5C14.8422 4.5 15.0661 4.27614 15.0661 4C15.0661 3.72386 14.8422 3.5 14.5661 3.5V4.5ZM17.5636 3.5C17.2875 3.5 17.0636 3.72386 17.0636 4C17.0636 4.27614 17.2875 4.5 17.5636 4.5V3.5ZM20.5611 4.5C20.8373 4.5 21.0611 4.27614 21.0611 4C21.0611 3.72386 20.8373 3.5 20.5611 3.5V4.5ZM23.5587 3.5C23.2825 3.5 23.0587 3.72386 23.0587 4C23.0587 4.27614 23.2825 4.5 23.5587 4.5V3.5ZM26.5562 4.5C26.8324 4.5 27.0562 4.27614 27.0562 4C27.0562 3.72386 26.8324 3.5 26.5562 3.5V4.5ZM29.5538 3.5C29.2776 3.5 29.0538 3.72386 29.0538 4C29.0538 4.27614 29.2776 4.5 29.5538 4.5V3.5ZM32.5513 4.5C32.8274 4.5 33.0513 4.27614 33.0513 4C33.0513 3.72386 32.8274 3.5 32.5513 3.5V4.5ZM35.5488 3.5C35.2727 3.5 35.0488 3.72386 35.0488 4C35.0488 4.27614 35.2727 4.5 35.5488 4.5V3.5ZM38.5464 4.5C38.8225 4.5 39.0464 4.27614 39.0464 4C39.0464 3.72386 38.8225 3.5 38.5464 3.5V4.5ZM41.5439 3.5C41.2678 3.5 41.0439 3.72386 41.0439 4C41.0439 4.27614 41.2678 4.5 41.5439 4.5V3.5ZM44.5415 4.5C44.8176 4.5 45.0415 4.27614 45.0415 4C45.0415 3.72386 44.8176 3.5 44.5415 3.5V4.5ZM47.539 3.5C47.2628 3.5 47.039 3.72386 47.039 4C47.039 4.27614 47.2628 4.5 47.539 4.5V3.5ZM50.5365 4.5C50.8127 4.5 51.0365 4.27614 51.0365 4C51.0365 3.72386 50.8127 3.5 50.5365 3.5V4.5ZM53.5341 3.5C53.2579 3.5 53.0341 3.72386 53.0341 4C53.0341 4.27614 53.2579 4.5 53.5341 4.5V3.5ZM56.5316 4.5C56.8078 4.5 57.0316 4.27614 57.0316 4C57.0316 3.72386 56.8078 3.5 56.5316 3.5V4.5ZM59.5291 3.5C59.253 3.5 59.0291 3.72386 59.0291 4C59.0291 4.27614 59.253 4.5 59.5291 4.5V3.5ZM62.5267 4.5C62.8028 4.5 63.0267 4.27614 63.0267 4C63.0267 3.72386 62.8028 3.5 62.5267 3.5V4.5ZM65.5242 3.5C65.2481 3.5 65.0242 3.72386 65.0242 4C65.0242 4.27614 65.2481 4.5 65.5242 4.5V3.5ZM68.5218 4.5C68.7979 4.5 69.0218 4.27614 69.0218 4C69.0218 3.72386 68.7979 3.5 68.5218 3.5V4.5ZM71.5193 3.5C71.2432 3.5 71.0193 3.72386 71.0193 4C71.0193 4.27614 71.2432 4.5 71.5193 4.5V3.5ZM74.5168 4.5C74.793 4.5 75.0168 4.27614 75.0168 4C75.0168 3.72386 74.793 3.5 74.5168 3.5V4.5ZM77.5144 3.5C77.2382 3.5 77.0144 3.72386 77.0144 4C77.0144 4.27614 77.2382 4.5 77.5144 4.5V3.5ZM80.5119 4.5C80.788 4.5 81.0119 4.27614 81.0119 4C81.0119 3.72386 80.788 3.5 80.5119 3.5V4.5ZM83.5094 3.5C83.2333 3.5 83.0094 3.72386 83.0094 4C83.0094 4.27614 83.2333 4.5 83.5094 4.5V3.5ZM86.507 4.5C86.7831 4.5 87.007 4.27614 87.007 4C87.007 3.72386 86.7831 3.5 86.507 3.5V4.5ZM89.5045 3.5C89.2284 3.5 89.0045 3.72386 89.0045 4C89.0045 4.27614 89.2284 4.5 89.5045 4.5V3.5ZM92.502 4.5C92.7782 4.5 93.002 4.27614 93.002 4C93.002 3.72386 92.7782 3.5 92.502 3.5V4.5ZM95.4996 3.5C95.2234 3.5 94.9996 3.72386 94.9996 4C94.9996 4.27614 95.2234 4.5 95.4996 4.5V3.5ZM98.4971 4.5C98.7733 4.5 98.9971 4.27614 98.9971 4C98.9971 3.72386 98.7733 3.5 98.4971 3.5V4.5ZM101.495 3.5C101.219 3.5 100.995 3.72386 100.995 4C100.995 4.27614 101.219 4.5 101.495 4.5V3.5ZM104.492 4.5C104.768 4.5 104.992 4.27614 104.992 4C104.992 3.72386 104.768 3.5 104.492 3.5V4.5ZM107.49 3.5C107.214 3.5 106.99 3.72386 106.99 4C106.99 4.27614 107.214 4.5 107.49 4.5V3.5ZM110.487 4.5C110.763 4.5 110.987 4.27614 110.987 4C110.987 3.72386 110.763 3.5 110.487 3.5V4.5ZM113.485 3.5C113.209 3.5 112.985 3.72386 112.985 4C112.985 4.27614 113.209 4.5 113.485 4.5V3.5ZM116.482 4.5C116.758 4.5 116.982 4.27614 116.982 4C116.982 3.72386 116.758 3.5 116.482 3.5V4.5ZM119.48 3.5C119.204 3.5 118.98 3.72386 118.98 4C118.98 4.27614 119.204 4.5 119.48 4.5V3.5ZM122.477 4.5C122.754 4.5 122.977 4.27614 122.977 4C122.977 3.72386 122.754 3.5 122.477 3.5V4.5ZM125.475 3.5C125.199 3.5 124.975 3.72386 124.975 4C124.975 4.27614 125.199 4.5 125.475 4.5V3.5ZM128.472 4.5C128.749 4.5 128.972 4.27614 128.972 4C128.972 3.72386 128.749 3.5 128.472 3.5V4.5ZM131.47 3.5C131.194 3.5 130.97 3.72386 130.97 4C130.97 4.27614 131.194 4.5 131.47 4.5V3.5ZM1.07715 4.5H2.57592V3.5H1.07715V4.5ZM5.57346 4.5H8.57099V3.5H5.57346V4.5ZM11.5685 4.5H14.5661V3.5H11.5685V4.5ZM17.5636 4.5H20.5611V3.5H17.5636V4.5ZM23.5587 4.5H26.5562V3.5H23.5587V4.5ZM29.5538 4.5H32.5513V3.5H29.5538V4.5ZM35.5488 4.5H38.5464V3.5H35.5488V4.5ZM41.5439 4.5H44.5415V3.5H41.5439V4.5ZM47.539 4.5H50.5365V3.5H47.539V4.5ZM53.5341 4.5H56.5316V3.5H53.5341V4.5ZM59.5291 4.5H62.5267V3.5H59.5291V4.5ZM65.5242 4.5H68.5218V3.5H65.5242V4.5ZM71.5193 4.5H74.5168V3.5H71.5193V4.5ZM77.5144 4.5H80.5119V3.5H77.5144V4.5ZM83.5094 4.5H86.507V3.5H83.5094V4.5ZM89.5045 4.5H92.502V3.5H89.5045V4.5ZM95.4996 4.5H98.4971V3.5H95.4996V4.5ZM101.495 4.5H104.492V3.5H101.495V4.5ZM107.49 4.5H110.487V3.5H107.49V4.5ZM113.485 4.5H116.482V3.5H113.485V4.5ZM119.48 4.5H122.477V3.5H119.48V4.5ZM125.475 4.5H128.472V3.5H125.475V4.5ZM131.47 4.5H132.969V3.5H131.47V4.5Z" fill="#5481C4"/>
</svg>
