<svg width="57" height="75" viewBox="0 0 57 75" fill="none" xmlns="http://www.w3.org/2000/svg">
<g id="Component 1">
<path id="Fill 5" d="M54.5506 36.1851C52.1305 32.9849 51.0308 30.2078 51.0308 25.4962V23.898C51.0308 17.7544 49.7862 13.8023 47.0731 9.84635C42.8915 3.70277 35.8519 0 28.9604 0H28.6641C21.9176 0 15.0986 3.53275 10.8445 9.42317C7.98326 13.4622 6.59379 17.5882 6.59379 23.898V25.4962C6.59379 30.2078 5.56649 32.9849 3.0707 36.1851C1.24001 38.5428 0.650635 41.5693 0.650635 44.8526C0.650635 48.1322 1.60549 51.2456 3.51191 53.7733C6.00441 56.8035 9.5242 58.738 13.1197 59.0743C18.3253 59.7469 23.5309 60 28.8123 60C34.0903 60 39.2992 59.5768 44.5048 59.0743C48.0971 58.738 51.6169 56.8035 54.1127 53.7733C56.0191 51.2456 56.9706 48.1322 56.9706 44.8526C56.9706 41.5693 56.3846 38.5428 54.5506 36.1851Z" fill="#FF9F31"/>
<path id="Fill 6" d="M22.2908 64.306C20.9135 64.6867 19.4241 65.5765 19.4241 67.5192C19.5041 69.3686 20.4106 71.0083 21.6662 72.0457C23.287 73.5648 25.1928 74.5245 27.1884 74.8703C28.2518 75.0452 29.3344 75.0413 30.4363 74.8703C32.4286 74.5245 34.3345 73.5648 35.9584 72.0495C37.2109 71.0083 38.1173 69.3686 38.1974 67.5192C38.1974 65.5765 36.708 64.6867 35.3306 64.306C33.7195 63.898 23.902 63.898 22.2908 64.306Z" fill="#FF9F31"/>
</g>
</svg>
